<?xml version="1.0" standalone="no"?><!DOCTYPE svg PUBLIC "-//W3C//DTD SVG 1.1//EN" "http://www.w3.org/Graphics/SVG/1.1/DTD/svg11.dtd"><svg t="1774600360011" class="icon" viewBox="0 0 1024 1024" version="1.1" xmlns="http://www.w3.org/2000/svg" p-id="17048" xmlns:xlink="http://www.w3.org/1999/xlink" width="200" height="200"><path d="M429.31712 123.65312c0 45.6704 37.02784 82.688 82.69312 82.688 45.6704 0 82.69824-37.0176 82.69824-82.688 0-45.6704-37.02784-82.69312-82.69824-82.69312-45.6704 0-82.688 37.02272-82.688 82.69312z m284.09344 128.58368a67.84 67.84 0 0 0 18.12992 20.48c20.32128 15.2064 21.67296 37.03296 21.67296 62.40768 0 25.2928 0 50.56512-0.01024 75.84768 0 14.88896 0 42.6752-9.05216 46.4128-9.05216 3.7376-36.864-9.82016-57.29792-21.61664l-72.1664-41.6512c-21.21728-12.25216-34.38592-21.99552-38.08256-46.19264a62.28992 62.28992 0 0 0-30.48448-44.61056c-29.83424-17.21344-67.97312-6.99904-85.20704 22.81984a61.9776 61.9776 0 0 0-7.63904 21.79072c-3.712 24.21248-16.896 33.96608-38.10816 46.20288-15.5648 8.99072-31.08352 17.98144-46.6432 26.9568-26.54208 15.32416-67.2 21.79072-72.12032 20.42368-4.92032-1.37216-10.2912-2.40128-14.4384-8.48896-4.1472-6.0928-5.3248-30.75584-5.3248-51.46112 0-17.95072 0.03584-35.87584 0.03584-53.85728 0-24.50432 0.57856-45.60384 19.72736-60.9024 23.6544-18.90816 30.61248-52.79744 15.0016-79.86688-17.23392-29.81888-55.38304-40.04864-85.21728-22.8096-29.81888 17.21344-40.04864 55.3728-22.81984 85.1968a62.20288 62.20288 0 0 0 15.03232 17.50528c19.13856 15.29856 19.6864 36.38784 19.6864 60.8768 0.01024 17.95584 0.03584 35.9168 0.03584 53.86752-0.01024 20.70528 4.49536 48.18944-7.3728 55.33696-15.65184 8.42752-28.6976 16.8192-37.504 32.0768a73.56928 73.56928 0 0 0-9.7792 41.76896 73.59488 73.59488 0 0 0 9.7792 41.78432 73.76896 73.76896 0 0 0 37.50912 32.0768c9.73824 2.22208 7.35744 34.64192 7.3728 55.33184 0 17.96608-0.03072 35.9168-0.04096 53.85728 0 24.50432-0.54784 45.57824-19.6864 60.90752a61.952 61.952 0 0 0-15.03232 17.48992c-17.22368 29.83424-6.99904 67.98336 22.81984 85.20704 29.83424 17.21344 67.98336 6.99904 85.2224-22.8352 15.60576-27.05408 8.64256-60.928-15.00672-79.86176-19.1488-15.28832-19.72736-36.38784-19.72736-60.88192 0-17.99168-0.03584-35.9168-0.03584-53.86752 0-20.69504 0.82944-49.14688 7.64928-55.43936 12.11392-11.17184 57.69216 0.59904 84.23936 15.91296 15.55456 8.97536 31.06816 17.96608 46.63808 26.94144 21.21728 12.25216 34.39616 21.99552 38.10816 46.21824 1.1264 7.45984 3.6352 14.84288 7.63904 21.79072 17.23392 29.81888 55.3728 40.03328 85.20704 22.81984a62.336 62.336 0 0 0 30.48448-44.62592c3.69664-24.18176 16.86528-33.92512 38.08256-46.16704l72.1664-41.66656c20.43392-11.79136 52.43904-23.54176 60.59008-18.36032 7.02464 3.86048 6.4768 2.96448 6.4768 4.33664 2.1504 0.88064 1.152 0 1.152 0 0 2.33984 22.46656 4.45952 22.46656 4.45952 4.97152 0.54272 13.50144-2.7392 16.06144-4.45952 0 2.3296 0 1.72032 0 0 0-0.83968-4.98176 3.72224 8.1152-5.5808 4.79232-4.01408 30.82752-33.57184 29.06624-55.38816a58.46016 58.46016 0 0 0-29.06624-55.3728c-11.85792-11.08992-9.94816-29.5168-9.94816-44.42112 0-25.28256 0-50.54976-0.0256-75.83232 0-25.38496 1.37728-47.22688 21.68832-62.4384 27.27424-20.39808 35.59936-58.42944 18.12992-88.66304-12.63104-21.87776-35.56864-34.11456-59.15648-34.12992a67.9424 67.9424 0 0 0-34.04288 9.15456c-32.6144 18.8416-43.79648 60.55936-24.94976 93.184z m-288.50688 348.74368c-15.58016-8.9856-31.11936-17.93536-46.67392-26.90048-24.60672-14.22848-40.57088-36.05504-46.4384-63.32928-3.90656 18.17088-3.90656 18.17088 0 0 5.86752-27.25888 21.83168-49.1008 46.4384-63.31392 15.55456-8.97536 31.09376-17.92512 46.67392-26.9056 21.23264-12.25216 44.54912-14.00832 67.38432-5.08416a62.27456 62.27456 0 0 0 45.32736-0.01536c22.81984-8.89856 46.12608-7.13728 67.31776 5.11488l72.17664 41.6512c19.0464 11.01824 31.58016 27.63264 36.65408 48.55296-5.07392 20.95104-17.60768 37.55008-36.65408 48.55296l-72.17664 41.66656c-21.19168 12.2368-44.49792 14.00832-67.31776 5.12512a62.34624 62.34624 0 0 0-45.32736-0.04096c-9.5744 3.74784-19.24096 5.61152-28.8 5.61152-13.22496 0-26.2656-3.56864-38.58432-10.68544z m467.71712-90.22976c0 27.80672 22.528 50.35008 50.32448 50.35008 27.80672 0 50.33472-22.54336 50.33472-50.35008 0-27.79136-22.528-50.33472-50.33472-50.33472-27.79648 0-50.32448 22.54336-50.32448 50.33472zM30.72 510.75072c0 27.80672 22.54336 50.35008 50.33472 50.35008 27.80672 0 50.35008-22.54336 50.35008-50.35008 0-27.79136-22.54336-50.33472-50.35008-50.33472-27.79136 0-50.33472 22.54336-50.33472 50.33472z m398.59712 387.11296c0 45.66528 37.02784 82.67776 82.69312 82.67776 45.6704 0 82.69824-37.01248 82.69824-82.67776 0-45.6704-37.02784-82.68288-82.69824-82.68288-45.6704 0-82.688 37.01248-82.688 82.68288zM924.76416 696.32c21.248 0 38.67648 17.12128 38.67648 38.51776v213.70368c0 10.69568-8.25344 16.50688-18.19136 12.99456l-102.56896-35.46624-102.56896 35.46624c-10.09152 3.51744-18.19136-2.29376-18.19136-12.99456v-213.54496a38.62528 38.62528 0 0 1 38.67648-38.67648h164.16768z m-80.9984 54.82496c-2.39104 0-4.77696 1.19808-5.96992 3.584l-18.5088 35.2256-39.40864 5.376c-2.38592 0-4.77696 1.792-5.37088 4.17792-1.19808 2.39104-0.59904 4.77696 1.19296 6.56896l27.46368 28.65664-7.16288 38.8096c-0.59904 2.39104 0.59392 4.78208 2.38592 6.56896 1.78688 1.19808 4.17792 1.792 6.56896 0.59904l35.82464-17.31072 35.2256 18.50368c0.59392 0.59904 1.792 0.59904 2.98496 0.59904h4.17792c2.39104-1.792 3.58912-4.17792 2.99008-6.56896l-5.376-39.40864 28.66176-27.45856c1.792-1.792 2.38592-4.18304 1.792-6.57408-1.19808-2.38592-2.99008-4.17792-5.376-4.77184l-38.8096-7.168-17.31584-35.82464c-1.19296-2.38592-3.584-3.584-5.96992-3.584z" p-id="17049"></path></svg>