<?xml version="1.0" standalone="no"?><!DOCTYPE svg PUBLIC "-//W3C//DTD SVG 1.1//EN" "http://www.w3.org/Graphics/SVG/1.1/DTD/svg11.dtd"><svg t="1777283398212" class="icon" viewBox="0 0 1024 1024" version="1.1" xmlns="http://www.w3.org/2000/svg" p-id="15858" xmlns:xlink="http://www.w3.org/1999/xlink" width="16" height="16"><path d="M128 0h768c85.33504 0 128 42.66496 128 128v768c0 85.33504-42.66496 128-128 128H128c-85.33504 0-128-42.66496-128-128V128C0 42.66496 42.66496 0 128 0z" fill="#FCE8E1" p-id="15859"></path><path d="M235.52 368.64c0-28.27776 22.92224-51.2 51.2-51.2h368.64c28.27776 0 51.2 22.92224 51.2 51.2v368.64c0 28.27776-22.92224 51.2-51.2 51.2H286.72c-28.27776 0-51.2-22.92224-51.2-51.2V368.64z" fill="#FF845B" fill-opacity=".2" p-id="15860"></path><path d="M317.44 286.72c0-28.27776 22.92224-51.2 51.2-51.2h368.64c28.27776 0 51.2 22.92224 51.2 51.2v368.64c0 28.27776-22.92224 51.2-51.2 51.2H368.64c-28.27776 0-51.2-22.92224-51.2-51.2V286.72z" fill="#FF845B" p-id="15861"></path><path d="M453.28896 484.31104l-0.50688 0.58368c-5.28896 6.58432-0.65536 16.6144 8.01792 16.6144h65.536V563.2c0 9.21088 11.2128 13.73696 17.60768 7.1168l108.544-112.39424 0.52224-0.58368c5.4784-6.54336 0.88064-16.768-7.88992-16.768l-69.888-0.00512V378.88c0-9.31328-11.4176-13.78816-17.75104-6.9632l-104.192 112.39424z m101.45792-79.32928l0.00512 45.824 0.0256 0.768a10.24 10.24 0 0 0 10.2144 9.472h56.00256L546.816 537.85088v-46.58176l-0.0256-0.76288a10.24 10.24 0 0 0-10.2144-9.472l-52.3264-0.00512 70.49728-76.04736z" fill="#FFFFFF" p-id="15862"></path></svg>