<svg width="14" height="14" viewBox="0 0 14 14" fill="none" xmlns="http://www.w3.org/2000/svg">
<g clip-path="url(#clip0_1614_12998)">
<path d="M11.3242 2.96204H5.57822V3.98978H10.6702L10.8103 4.12993V13.8H11.8371L11.8381 11.9781L11.9782 11.838H13.8001V10.8102H11.9829L11.8428 10.6701V3.47685C11.8419 3.35449 11.7979 3.23635 11.7184 3.14334C11.6389 3.05032 11.529 2.98842 11.4083 2.96858L11.3242 2.96204ZM3.9899 1H2.96123L2.96217 2.8219L2.82202 2.96204L1.00012 2.96111V3.98978H2.82202L2.96217 4.12993V11.3194C2.96217 11.5754 3.14903 11.7894 3.39195 11.8305L3.47603 11.838H9.22202V10.8102H4.13005L3.9899 10.6701V1Z" fill="black"/>
</g>
<defs>
<clipPath id="clip0_1614_12998">
<rect width="14" height="14" fill="white"/>
</clipPath>
</defs>
</svg>
